<mxfile host="app.diagrams.net" modified="2023-09-29T02:23:00.434Z" agent="Mozilla/5.0 (Windows NT 10.0; Win64; x64) AppleWebKit/537.36 (KHTML, like Gecko) Chrome/116.0.0.0 Safari/537.36" etag="lgfDo6ocNqyN5u_TITSy" version="21.7.4" type="github">
  <diagram name="Page-1" id="erAtQDl_8JYRBwKJXeQl">
    <mxGraphModel dx="1050" dy="574" grid="1" gridSize="10" guides="1" tooltips="1" connect="1" arrows="1" fold="1" page="1" pageScale="1" pageWidth="583" pageHeight="827" math="0" shadow="0">
      <root>
        <mxCell id="0" />
        <mxCell id="1" parent="0" />
        <mxCell id="t0AGAHi7mm0p3O3jNCSY-1" value="«interface»&lt;br&gt;&lt;b&gt;Loader&lt;/b&gt;" style="html=1;whiteSpace=wrap;" vertex="1" parent="1">
          <mxGeometry x="50" y="30" width="110" height="50" as="geometry" />
        </mxCell>
        <mxCell id="t0AGAHi7mm0p3O3jNCSY-6" style="edgeStyle=orthogonalEdgeStyle;rounded=0;orthogonalLoop=1;jettySize=auto;html=1;exitX=0.5;exitY=0;exitDx=0;exitDy=0;entryX=0.5;entryY=1;entryDx=0;entryDy=0;dashed=1;endArrow=block;endFill=0;" edge="1" parent="1" source="t0AGAHi7mm0p3O3jNCSY-2" target="t0AGAHi7mm0p3O3jNCSY-1">
          <mxGeometry relative="1" as="geometry" />
        </mxCell>
        <mxCell id="t0AGAHi7mm0p3O3jNCSY-16" style="edgeStyle=orthogonalEdgeStyle;rounded=0;orthogonalLoop=1;jettySize=auto;html=1;exitX=1;exitY=0.5;exitDx=0;exitDy=0;entryX=0;entryY=0.5;entryDx=0;entryDy=0;dashed=1;endArrow=openThin;endFill=0;" edge="1" parent="1" source="t0AGAHi7mm0p3O3jNCSY-2" target="t0AGAHi7mm0p3O3jNCSY-11">
          <mxGeometry relative="1" as="geometry">
            <mxPoint x="350" y="199" as="targetPoint" />
          </mxGeometry>
        </mxCell>
        <mxCell id="t0AGAHi7mm0p3O3jNCSY-17" value="uses" style="edgeLabel;html=1;align=center;verticalAlign=middle;resizable=0;points=[];" vertex="1" connectable="0" parent="t0AGAHi7mm0p3O3jNCSY-16">
          <mxGeometry x="-0.4739" relative="1" as="geometry">
            <mxPoint x="32" as="offset" />
          </mxGeometry>
        </mxCell>
        <mxCell id="t0AGAHi7mm0p3O3jNCSY-2" value="WebappLoader" style="swimlane;fontStyle=1;align=center;verticalAlign=top;childLayout=stackLayout;horizontal=1;startSize=26;horizontalStack=0;resizeParent=1;resizeParentMax=0;resizeLast=0;collapsible=1;marginBottom=0;whiteSpace=wrap;html=1;" vertex="1" parent="1">
          <mxGeometry x="25" y="180" width="160" height="34" as="geometry" />
        </mxCell>
        <mxCell id="t0AGAHi7mm0p3O3jNCSY-4" value="" style="line;strokeWidth=1;fillColor=none;align=left;verticalAlign=middle;spacingTop=-1;spacingLeft=3;spacingRight=3;rotatable=0;labelPosition=right;points=[];portConstraint=eastwest;strokeColor=inherit;" vertex="1" parent="t0AGAHi7mm0p3O3jNCSY-2">
          <mxGeometry y="26" width="160" height="8" as="geometry" />
        </mxCell>
        <mxCell id="t0AGAHi7mm0p3O3jNCSY-7" value="URLClassLoader" style="swimlane;fontStyle=1;align=center;verticalAlign=top;childLayout=stackLayout;horizontal=1;startSize=26;horizontalStack=0;resizeParent=1;resizeParentMax=0;resizeLast=0;collapsible=1;marginBottom=0;whiteSpace=wrap;html=1;" vertex="1" parent="1">
          <mxGeometry x="350" y="38" width="160" height="34" as="geometry" />
        </mxCell>
        <mxCell id="t0AGAHi7mm0p3O3jNCSY-9" value="" style="line;strokeWidth=1;fillColor=none;align=left;verticalAlign=middle;spacingTop=-1;spacingLeft=3;spacingRight=3;rotatable=0;labelPosition=right;points=[];portConstraint=eastwest;strokeColor=inherit;" vertex="1" parent="t0AGAHi7mm0p3O3jNCSY-7">
          <mxGeometry y="26" width="160" height="8" as="geometry" />
        </mxCell>
        <mxCell id="t0AGAHi7mm0p3O3jNCSY-15" style="edgeStyle=orthogonalEdgeStyle;rounded=0;orthogonalLoop=1;jettySize=auto;html=1;exitX=0.5;exitY=0;exitDx=0;exitDy=0;entryX=0.5;entryY=1;entryDx=0;entryDy=0;endArrow=block;endFill=0;" edge="1" parent="1" source="t0AGAHi7mm0p3O3jNCSY-11" target="t0AGAHi7mm0p3O3jNCSY-7">
          <mxGeometry relative="1" as="geometry" />
        </mxCell>
        <mxCell id="t0AGAHi7mm0p3O3jNCSY-19" style="edgeStyle=orthogonalEdgeStyle;rounded=0;orthogonalLoop=1;jettySize=auto;html=1;exitX=0.5;exitY=0;exitDx=0;exitDy=0;entryX=0.5;entryY=1;entryDx=0;entryDy=0;dashed=1;endArrow=block;endFill=0;" edge="1" parent="1" source="t0AGAHi7mm0p3O3jNCSY-11" target="t0AGAHi7mm0p3O3jNCSY-18">
          <mxGeometry relative="1" as="geometry" />
        </mxCell>
        <mxCell id="t0AGAHi7mm0p3O3jNCSY-11" value="WebappClassLoader" style="swimlane;fontStyle=1;align=center;verticalAlign=top;childLayout=stackLayout;horizontal=1;startSize=26;horizontalStack=0;resizeParent=1;resizeParentMax=0;resizeLast=0;collapsible=1;marginBottom=0;whiteSpace=wrap;html=1;" vertex="1" parent="1">
          <mxGeometry x="350" y="180" width="160" height="34" as="geometry" />
        </mxCell>
        <mxCell id="t0AGAHi7mm0p3O3jNCSY-13" value="" style="line;strokeWidth=1;fillColor=none;align=left;verticalAlign=middle;spacingTop=-1;spacingLeft=3;spacingRight=3;rotatable=0;labelPosition=right;points=[];portConstraint=eastwest;strokeColor=inherit;" vertex="1" parent="t0AGAHi7mm0p3O3jNCSY-11">
          <mxGeometry y="26" width="160" height="8" as="geometry" />
        </mxCell>
        <mxCell id="t0AGAHi7mm0p3O3jNCSY-18" value="«interface»&lt;br&gt;&lt;b&gt;Reloader&lt;/b&gt;" style="html=1;whiteSpace=wrap;" vertex="1" parent="1">
          <mxGeometry x="200" y="30" width="110" height="50" as="geometry" />
        </mxCell>
      </root>
    </mxGraphModel>
  </diagram>
</mxfile>
